<mxfile host="app.diagrams.net" modified="2021-05-22T13:38:10.151Z" agent="5.0 (Macintosh; Intel Mac OS X 10_15_7) AppleWebKit/537.36 (KHTML, like Gecko) Chrome/90.0.4430.212 Safari/537.36" etag="QIe_TCtXuFQHeT-Ywi7v" version="14.2.4" type="github">
  <diagram id="YDq30yNLg8MbDRHc_g-c" name="Page-1">
    <mxGraphModel dx="839" dy="558" grid="0" gridSize="10" guides="1" tooltips="1" connect="1" arrows="1" fold="1" page="1" pageScale="1" pageWidth="827" pageHeight="1169" math="0" shadow="0">
      <root>
        <mxCell id="0" />
        <mxCell id="1" parent="0" />
        <mxCell id="0DXvmOEvGD87Ocd6d_Wr-25" style="edgeStyle=orthogonalEdgeStyle;rounded=0;orthogonalLoop=1;jettySize=auto;html=1;exitX=0.5;exitY=1;exitDx=0;exitDy=0;entryX=0.5;entryY=0;entryDx=0;entryDy=0;" parent="1" source="0DXvmOEvGD87Ocd6d_Wr-12" target="0DXvmOEvGD87Ocd6d_Wr-22" edge="1">
          <mxGeometry relative="1" as="geometry" />
        </mxCell>
        <mxCell id="0DXvmOEvGD87Ocd6d_Wr-12" value="&lt;font&gt;&lt;span style=&quot;font-size: 14px&quot;&gt;声明&amp;nbsp;scss 字符串变量&lt;/span&gt;&lt;br&gt;&lt;font style=&quot;font-size: 14px&quot;&gt;_base.scss&lt;/font&gt;&lt;br&gt;&lt;/font&gt;" style="rounded=0;whiteSpace=wrap;html=1;verticalAlign=middle;spacing=2;" parent="1" vertex="1">
          <mxGeometry x="247" y="49" width="178.75" height="50" as="geometry" />
        </mxCell>
        <mxCell id="0DXvmOEvGD87Ocd6d_Wr-13" value="&lt;span style=&quot;font-size: 15px&quot;&gt;生成组件 SCSS&lt;/span&gt;" style="rounded=0;whiteSpace=wrap;html=1;" parent="1" vertex="1">
          <mxGeometry x="50.75" y="544" width="180" height="61" as="geometry" />
        </mxCell>
        <mxCell id="0DXvmOEvGD87Ocd6d_Wr-35" style="edgeStyle=orthogonalEdgeStyle;rounded=0;orthogonalLoop=1;jettySize=auto;html=1;exitX=0.5;exitY=1;exitDx=0;exitDy=0;entryX=0.509;entryY=0.033;entryDx=0;entryDy=0;entryPerimeter=0;" parent="1" source="0DXvmOEvGD87Ocd6d_Wr-22" target="0DXvmOEvGD87Ocd6d_Wr-46" edge="1">
          <mxGeometry relative="1" as="geometry">
            <mxPoint x="336.69000000000005" y="264" as="targetPoint" />
          </mxGeometry>
        </mxCell>
        <mxCell id="0DXvmOEvGD87Ocd6d_Wr-22" value="&lt;font style=&quot;font-size: 14px&quot;&gt;声明 scss 字符串变量&lt;br&gt;对应样式&lt;/font&gt;" style="rounded=0;whiteSpace=wrap;html=1;" parent="1" vertex="1">
          <mxGeometry x="247" y="159" width="178.75" height="60" as="geometry" />
        </mxCell>
        <mxCell id="0DXvmOEvGD87Ocd6d_Wr-28" style="edgeStyle=orthogonalEdgeStyle;rounded=0;orthogonalLoop=1;jettySize=auto;html=1;entryX=1;entryY=0.5;entryDx=0;entryDy=0;" parent="1" source="0DXvmOEvGD87Ocd6d_Wr-27" target="0DXvmOEvGD87Ocd6d_Wr-22" edge="1">
          <mxGeometry relative="1" as="geometry" />
        </mxCell>
        <mxCell id="0DXvmOEvGD87Ocd6d_Wr-27" value="主题色样式" style="ellipse;shape=cloud;whiteSpace=wrap;html=1;" parent="1" vertex="1">
          <mxGeometry x="487" y="149" width="120" height="80" as="geometry" />
        </mxCell>
        <mxCell id="0DXvmOEvGD87Ocd6d_Wr-36" value="&lt;span style=&quot;font-size: 15px&quot;&gt;生成组件 CSS&lt;/span&gt;" style="rounded=0;whiteSpace=wrap;html=1;" parent="1" vertex="1">
          <mxGeometry x="345" y="544" width="180" height="61" as="geometry" />
        </mxCell>
        <mxCell id="0DXvmOEvGD87Ocd6d_Wr-39" value="&lt;span style=&quot;font-size: 15px&quot;&gt;生成模板文件&lt;/span&gt;&lt;br&gt;&lt;font style=&quot;font-size: 14px&quot;&gt;dist/style_model.js&lt;/font&gt;" style="rounded=0;whiteSpace=wrap;html=1;" parent="1" vertex="1">
          <mxGeometry x="596" y="544" width="180" height="61" as="geometry" />
        </mxCell>
        <mxCell id="0DXvmOEvGD87Ocd6d_Wr-46" value="&lt;span style=&quot;font-size: 14px&quot;&gt;编译&lt;/span&gt;" style="rounded=0;whiteSpace=wrap;html=1;" parent="1" vertex="1">
          <mxGeometry x="245.75" y="285" width="178.75" height="60" as="geometry" />
        </mxCell>
        <mxCell id="0DXvmOEvGD87Ocd6d_Wr-49" style="edgeStyle=orthogonalEdgeStyle;rounded=0;orthogonalLoop=1;jettySize=auto;html=1;exitX=0.5;exitY=1;exitDx=0;exitDy=0;entryX=0.5;entryY=0;entryDx=0;entryDy=0;" parent="1" source="0DXvmOEvGD87Ocd6d_Wr-56" target="0DXvmOEvGD87Ocd6d_Wr-13" edge="1">
          <mxGeometry relative="1" as="geometry">
            <mxPoint x="141.375" y="478" as="sourcePoint" />
          </mxGeometry>
        </mxCell>
        <mxCell id="0DXvmOEvGD87Ocd6d_Wr-51" style="edgeStyle=orthogonalEdgeStyle;rounded=0;orthogonalLoop=1;jettySize=auto;html=1;exitX=0;exitY=0.5;exitDx=0;exitDy=0;" parent="1" source="0DXvmOEvGD87Ocd6d_Wr-54" target="0DXvmOEvGD87Ocd6d_Wr-36" edge="1">
          <mxGeometry relative="1" as="geometry">
            <mxPoint x="462" y="448" as="sourcePoint" />
            <Array as="points">
              <mxPoint x="436" y="441" />
            </Array>
          </mxGeometry>
        </mxCell>
        <mxCell id="0DXvmOEvGD87Ocd6d_Wr-52" style="edgeStyle=orthogonalEdgeStyle;rounded=0;orthogonalLoop=1;jettySize=auto;html=1;exitX=1;exitY=0.5;exitDx=0;exitDy=0;entryX=0.5;entryY=0;entryDx=0;entryDy=0;" parent="1" source="0DXvmOEvGD87Ocd6d_Wr-54" target="0DXvmOEvGD87Ocd6d_Wr-39" edge="1">
          <mxGeometry relative="1" as="geometry">
            <mxPoint x="640.75" y="448" as="sourcePoint" />
          </mxGeometry>
        </mxCell>
        <mxCell id="0DXvmOEvGD87Ocd6d_Wr-54" value="&lt;font style=&quot;font-size: 16px&quot;&gt;动态主题方案&lt;/font&gt;" style="text;html=1;strokeColor=none;fillColor=none;align=center;verticalAlign=middle;whiteSpace=wrap;rounded=0;" parent="1" vertex="1">
          <mxGeometry x="506" y="424" width="103" height="34" as="geometry" />
        </mxCell>
        <mxCell id="0DXvmOEvGD87Ocd6d_Wr-56" value="&lt;font style=&quot;font-size: 16px&quot;&gt;静态主题方案&lt;/font&gt;" style="text;html=1;strokeColor=none;fillColor=none;align=center;verticalAlign=middle;whiteSpace=wrap;rounded=0;" parent="1" vertex="1">
          <mxGeometry x="89.25" y="424" width="103" height="34" as="geometry" />
        </mxCell>
        <mxCell id="0DXvmOEvGD87Ocd6d_Wr-57" value="&lt;div style=&quot;margin: 0px&quot;&gt;&lt;p style=&quot;margin: 0px&quot;&gt;&lt;font style=&quot;font-size: 16px&quot;&gt;脚手架项目&lt;/font&gt;&lt;/p&gt;&lt;p style=&quot;margin: 0px&quot;&gt;&lt;font style=&quot;font-size: 16px&quot;&gt;mobile.config.js&lt;/font&gt;&lt;/p&gt;&lt;/div&gt;" style="rounded=0;whiteSpace=wrap;html=1;" parent="1" vertex="1">
          <mxGeometry x="50.75" y="783" width="180" height="61" as="geometry" />
        </mxCell>
        <mxCell id="0DXvmOEvGD87Ocd6d_Wr-60" value="" style="endArrow=none;html=1;entryX=0;entryY=0.5;entryDx=0;entryDy=0;exitX=0.5;exitY=0;exitDx=0;exitDy=0;" parent="1" source="0DXvmOEvGD87Ocd6d_Wr-56" target="0DXvmOEvGD87Ocd6d_Wr-46" edge="1">
          <mxGeometry width="50" height="50" relative="1" as="geometry">
            <mxPoint x="195.75" y="362" as="sourcePoint" />
            <mxPoint x="223" y="312" as="targetPoint" />
            <Array as="points">
              <mxPoint x="141" y="315" />
            </Array>
          </mxGeometry>
        </mxCell>
        <mxCell id="0DXvmOEvGD87Ocd6d_Wr-61" value="" style="endArrow=none;html=1;exitX=1;exitY=0.5;exitDx=0;exitDy=0;entryX=0.5;entryY=0;entryDx=0;entryDy=0;" parent="1" source="0DXvmOEvGD87Ocd6d_Wr-46" target="0DXvmOEvGD87Ocd6d_Wr-54" edge="1">
          <mxGeometry width="50" height="50" relative="1" as="geometry">
            <mxPoint x="467" y="332" as="sourcePoint" />
            <mxPoint x="517" y="282" as="targetPoint" />
            <Array as="points">
              <mxPoint x="558" y="315" />
            </Array>
          </mxGeometry>
        </mxCell>
        <mxCell id="0DXvmOEvGD87Ocd6d_Wr-64" style="edgeStyle=orthogonalEdgeStyle;rounded=0;orthogonalLoop=1;jettySize=auto;html=1;" parent="1" source="0DXvmOEvGD87Ocd6d_Wr-62" target="0DXvmOEvGD87Ocd6d_Wr-57" edge="1">
          <mxGeometry relative="1" as="geometry" />
        </mxCell>
        <mxCell id="0DXvmOEvGD87Ocd6d_Wr-62" value="&lt;font style=&quot;font-size: 15px&quot;&gt;消费&lt;/font&gt;" style="text;html=1;align=center;verticalAlign=middle;resizable=0;points=[];autosize=1;" parent="1" vertex="1">
          <mxGeometry x="120.75" y="685" width="40" height="19" as="geometry" />
        </mxCell>
        <mxCell id="0DXvmOEvGD87Ocd6d_Wr-65" value="" style="endArrow=none;html=1;entryX=0.5;entryY=1;entryDx=0;entryDy=0;exitX=0.481;exitY=-0.158;exitDx=0;exitDy=0;exitPerimeter=0;" parent="1" source="0DXvmOEvGD87Ocd6d_Wr-62" target="0DXvmOEvGD87Ocd6d_Wr-13" edge="1">
          <mxGeometry width="50" height="50" relative="1" as="geometry">
            <mxPoint x="75" y="709" as="sourcePoint" />
            <mxPoint x="125" y="659" as="targetPoint" />
          </mxGeometry>
        </mxCell>
        <mxCell id="0DXvmOEvGD87Ocd6d_Wr-67" value="&lt;div style=&quot;margin: 0px&quot;&gt;&lt;p style=&quot;margin: 0px&quot;&gt;&lt;span style=&quot;font-size: 16px&quot;&gt;ConfigProvider 组件&lt;/span&gt;&lt;/p&gt;&lt;/div&gt;" style="rounded=0;whiteSpace=wrap;html=1;" parent="1" vertex="1">
          <mxGeometry x="467.5" y="783" width="180" height="61" as="geometry" />
        </mxCell>
        <mxCell id="0DXvmOEvGD87Ocd6d_Wr-80" style="edgeStyle=orthogonalEdgeStyle;rounded=0;orthogonalLoop=1;jettySize=auto;html=1;exitX=0.5;exitY=1;exitDx=0;exitDy=0;entryX=0.5;entryY=0;entryDx=0;entryDy=0;" parent="1" source="0DXvmOEvGD87Ocd6d_Wr-79" target="0DXvmOEvGD87Ocd6d_Wr-67" edge="1">
          <mxGeometry relative="1" as="geometry" />
        </mxCell>
        <mxCell id="0DXvmOEvGD87Ocd6d_Wr-79" value="&lt;span style=&quot;font-size: 16px&quot;&gt;消费&lt;/span&gt;" style="text;html=1;strokeColor=none;fillColor=none;align=center;verticalAlign=middle;whiteSpace=wrap;rounded=0;" parent="1" vertex="1">
          <mxGeometry x="528.5" y="682.5" width="58" height="24" as="geometry" />
        </mxCell>
        <mxCell id="0DXvmOEvGD87Ocd6d_Wr-81" value="" style="endArrow=none;html=1;entryX=0.5;entryY=1;entryDx=0;entryDy=0;exitX=0;exitY=0.5;exitDx=0;exitDy=0;" parent="1" source="0DXvmOEvGD87Ocd6d_Wr-79" target="0DXvmOEvGD87Ocd6d_Wr-36" edge="1">
          <mxGeometry width="50" height="50" relative="1" as="geometry">
            <mxPoint x="364" y="719" as="sourcePoint" />
            <mxPoint x="414" y="669" as="targetPoint" />
            <Array as="points">
              <mxPoint x="435" y="695" />
            </Array>
          </mxGeometry>
        </mxCell>
        <mxCell id="0DXvmOEvGD87Ocd6d_Wr-83" value="" style="endArrow=none;html=1;entryX=0.5;entryY=1;entryDx=0;entryDy=0;exitX=1;exitY=0.5;exitDx=0;exitDy=0;" parent="1" source="0DXvmOEvGD87Ocd6d_Wr-79" target="0DXvmOEvGD87Ocd6d_Wr-39" edge="1">
          <mxGeometry width="50" height="50" relative="1" as="geometry">
            <mxPoint x="631" y="732" as="sourcePoint" />
            <mxPoint x="681" y="682" as="targetPoint" />
            <Array as="points">
              <mxPoint x="686" y="695" />
            </Array>
          </mxGeometry>
        </mxCell>
      </root>
    </mxGraphModel>
  </diagram>
</mxfile>
